<?xml version="1.0" encoding="UTF-8"?>
<svg version="1.1" xmlns="http://www.w3.org/2000/svg" width="85" height="85">
<path d="M0 0 C1.35019981 0.00424484 1.35019981 0.00424484 2.72767639 0.00857544 C5.58030945 0.01969972 8.43261936 0.04478967 11.28515625 0.0703125 C13.22851107 0.08035233 15.17187084 0.08947642 17.11523438 0.09765625 C21.85949801 0.11961362 26.60352249 0.15408949 31.34765625 0.1953125 C30.23143806 3.54396707 29.67291396 3.91097395 26.84765625 5.7578125 C24.09229031 7.51150645 24.09229031 7.51150645 22.34765625 10.1953125 C21.68765625 10.1953125 21.02765625 10.1953125 20.34765625 10.1953125 C20.34765625 10.8553125 20.34765625 11.5153125 20.34765625 12.1953125 C19.68765625 12.1953125 19.02765625 12.1953125 18.34765625 12.1953125 C18.10015625 12.81148437 17.85265625 13.42765625 17.59765625 14.0625 C15.18383206 18.18108753 10.77130619 19.03501088 6.34765625 20.1953125 C2.44632781 20.80011511 -1.47186318 21.19483962 -5.40625 21.51220703 C-10.87357421 21.81603017 -10.87357421 21.81603017 -15.65234375 24.1953125 C-16.3486659 26.14896695 -16.3486659 26.14896695 -16.40234375 28.3203125 C-16.48484375 29.5990625 -16.56734375 30.8778125 -16.65234375 32.1953125 C-15.99234375 32.1953125 -15.33234375 32.1953125 -14.65234375 32.1953125 C-14.65234375 32.8553125 -14.65234375 33.5153125 -14.65234375 34.1953125 C-14.10707031 34.29328125 -13.56179687 34.39125 -13 34.4921875 C-4.31573762 36.21419508 2.87845914 39.04957524 9.34765625 45.1953125 C9.67765625 45.8553125 10.00765625 46.5153125 10.34765625 47.1953125 C10.63898437 46.67582031 10.9303125 46.15632813 11.23046875 45.62109375 C14.06899894 40.79202194 16.76997378 37.45055337 21.34765625 34.1953125 C22.00765625 34.1953125 22.66765625 34.1953125 23.34765625 34.1953125 C23.34765625 33.5353125 23.34765625 32.8753125 23.34765625 32.1953125 C23.98574219 31.94136719 24.62382813 31.68742187 25.28125 31.42578125 C26.10753906 31.08160156 26.93382813 30.73742187 27.78515625 30.3828125 C28.60886719 30.04636719 29.43257813 29.70992187 30.28125 29.36328125 C32.68138113 28.31128162 32.68138113 28.31128162 33.34765625 25.1953125 C34.00765625 25.1953125 34.66765625 25.1953125 35.34765625 25.1953125 C38.29957773 31.09915546 37.02080995 41.50857678 35.453125 47.765625 C34.51508286 50.3046366 33.52609178 52.75952834 32.34765625 55.1953125 C31.68765625 55.1953125 31.02765625 55.1953125 30.34765625 55.1953125 C30.34765625 55.8553125 30.34765625 56.5153125 30.34765625 57.1953125 C29.68765625 57.1953125 29.02765625 57.1953125 28.34765625 57.1953125 C28.34765625 57.8553125 28.34765625 58.5153125 28.34765625 59.1953125 C24.69477432 60.41293981 22.19011489 60.58607101 18.34765625 60.1953125 C16.01523395 58.73882172 14.33513777 57.13431886 12.34765625 55.1953125 C12.30898437 56.17371094 12.30898437 56.17371094 12.26953125 57.171875 C11.89858801 62.88777311 11.32683182 66.78595579 7.34765625 71.1953125 C1.81396532 75.45199783 -5.00895043 74.86504045 -11.65234375 74.1953125 C-23.05588115 71.75498619 -32.78915651 64.46988985 -39.65234375 55.1953125 C-39.65234375 54.5353125 -39.65234375 53.8753125 -39.65234375 53.1953125 C-40.31234375 53.1953125 -40.97234375 53.1953125 -41.65234375 53.1953125 C-41.65234375 51.8753125 -41.65234375 50.5553125 -41.65234375 49.1953125 C-39.18561743 49.5768189 -37.96677515 49.83060864 -36.30859375 51.75390625 C-35.92703125 52.37394531 -35.54546875 52.99398437 -35.15234375 53.6328125 C-33.30314936 56.62525883 -31.90297297 57.83583386 -28.65234375 59.1953125 C-26.43630212 59.55539911 -26.43630212 59.55539911 -24.10546875 59.609375 C-23.26113281 59.64804688 -22.41679687 59.68671875 -21.546875 59.7265625 C-20.23783203 59.77296875 -20.23783203 59.77296875 -18.90234375 59.8203125 C-18.01417969 59.85898438 -17.12601563 59.89765625 -16.2109375 59.9375 C-14.02494395 60.03152123 -11.83895313 60.11717393 -9.65234375 60.1953125 C-9.90023174 58.22640163 -9.90023174 58.22640163 -10.65234375 56.1953125 C-13.17289047 55.10307559 -15.54218045 54.25012748 -18.15234375 53.4453125 C-25.86766064 50.82011636 -32.94266047 47.45580511 -36.8515625 39.8671875 C-39.00615509 32.6782054 -38.73817057 24.52013938 -35.58984375 17.6953125 C-30.47336464 8.93853733 -21.3798478 3.30551848 -11.72323608 0.6159668 C-7.83902001 -0.17302264 -3.94827923 -0.04735283 0 0 Z " fill="#042CAE" transform="translate(44.65234375,7.8046875)"/>
<path d="M0 0 C2.46672632 0.3815064 3.6855686 0.63529614 5.34375 2.55859375 C5.7253125 3.17863281 6.106875 3.79867187 6.5 4.4375 C8.34045138 7.41579801 9.65244091 8.84165588 13 10 C15.77394833 10.2952194 18.4700511 10.50712231 21.25 10.625 C21.99507812 10.66367188 22.74015625 10.70234375 23.5078125 10.7421875 C25.3381524 10.83605108 27.16904143 10.91909718 29 11 C29 11.33 29 11.66 29 12 C21.08 12.495 21.08 12.495 13 13 C13.99 14.485 13.99 14.485 15 16 C10.41061359 16 8.19220473 13.07900598 5 10 C2 6.51612903 2 6.51612903 2 4 C1.34 4 0.68 4 0 4 C0 2.68 0 1.36 0 0 Z " fill="#596BAD" transform="translate(3,57)"/>
<path d="M0 0 C1.31626862 2.63253725 0.74103409 3.72862235 0.0625 6.5625 C-1.34188921 13.12896845 -1.69186006 19.44404226 0 26 C1.32 26.33 2.64 26.66 4 27 C4 28.65 4 30.3 4 32 C-0.10590746 28.87593998 -2.47312469 27.07037838 -4 22 C-4.85552423 13.67356071 -4.54841693 7.10690146 0 0 Z " fill="#344A9C" transform="translate(11,23)"/>
<path d="M0 0 C0.33 0.99 0.66 1.98 1 3 C-2.9813783 4.3271261 -6.85045227 4.06915913 -11 4 C-11 4.99 -11 5.98 -11 7 C-16.4611399 6.64766839 -16.4611399 6.64766839 -19 6 C-20.5 3.9375 -20.5 3.9375 -21 2 C-18.97216725 -0.02783275 -14.98121788 0.58659606 -12.1875 0.4375 C-11.09985352 0.37272461 -11.09985352 0.37272461 -9.99023438 0.30664062 C-6.65216525 0.11423591 -3.34472343 0 0 0 Z " fill="#052899" transform="translate(36,68)"/>
<path d="M0 0 C0 0.66 0 1.32 0 2 C-2.2727675 3.49524178 -4.5679943 4.78399715 -7 6 C-7.99 5.67 -8.98 5.34 -10 5 C-10 5.66 -10 6.32 -10 7 C-11.6396875 7.5878125 -11.6396875 7.5878125 -13.3125 8.1875 C-16.91074922 9.7025523 -18.34524223 11.39846838 -20 15 C-20.99 14.67 -21.98 14.34 -23 14 C-21.48109114 10.061434 -19.13374291 8.30648739 -15.75 5.875 C-14.81671875 5.19179687 -13.8834375 4.50859375 -12.921875 3.8046875 C-8.54523113 1.10146629 -5.14711694 0 0 0 Z " fill="#2C429F" transform="translate(35,9)"/>
<path d="M0 0 C0.66 0.33 1.32 0.66 2 1 C1.49287967 4.71888239 0.88391785 7.73454239 -1 11 C-1.66 11 -2.32 11 -3 11 C-3 11.66 -3 12.32 -3 13 C-3.66 13 -4.32 13 -5 13 C-5 13.66 -5 14.32 -5 15 C-8.50147041 16.1671568 -11.32670036 16.13357453 -15 16 C-15.66 15.67 -16.32 15.34 -17 15 C-17 14.34 -17 13.68 -17 13 C-13.37 13 -9.74 13 -6 13 C-5.67 11.68 -5.34 10.36 -5 9 C-4.34 9 -3.68 9 -3 9 C-2.01 6.03 -1.02 3.06 0 0 Z " fill="#3C51A4" transform="translate(78,52)"/>
<path d="M0 0 C13.53 0 27.06 0 41 0 C39.75453595 3.73639216 38.36595047 4.18756513 35 6 C35 5.01 35 4.02 35 3 C32.0003383 1.50016915 28.88053039 1.76097945 25.5859375 1.68359375 C24.85629791 1.66281265 24.12665833 1.64203156 23.37490845 1.62062073 C21.04170237 1.55518083 18.70838279 1.49626632 16.375 1.4375 C14.79425905 1.39430947 13.21352961 1.35069501 11.6328125 1.30664062 C7.75532496 1.19950519 3.87772315 1.09822218 0 1 C0 0.67 0 0.34 0 0 Z " fill="#3C4D98" transform="translate(35,8)"/>
<path d="M0 0 C0 0.33 0 0.66 0 1 C-4.455 2.485 -4.455 2.485 -9 4 C-9.33 6.64 -9.66 9.28 -10 12 C-9.34 12 -8.68 12 -8 12 C-7.67 12.99 -7.34 13.98 -7 15 C-8.65 15 -10.3 15 -12 15 C-14.02567731 10.94864539 -13.11738985 7.37688319 -11.8125 3.1875 C-10 0 -10 0 -7.625 -1 C-4.93581922 -1 -2.60123723 -0.66888957 0 0 Z " fill="#32489F" transform="translate(38,28)"/>
<path d="M0 0 C-2.58744007 3.16242675 -5.04934204 4.08288297 -9 5 C-12.67353451 5.15685891 -16.32576557 5.11768011 -20 5 C-20 4.34 -20 3.68 -20 3 C-17.28849421 1.6442471 -14.68305292 1.39548374 -11.6875 0.9375 C-10.55699219 0.76089844 -9.42648438 0.58429687 -8.26171875 0.40234375 C-5.4578087 0.05647221 -2.81888956 -0.07933085 0 0 Z " fill="#344BA4" transform="translate(60,23)"/>
<path d="M0 0 C1.32 0.33 2.64 0.66 4 1 C4.625 2.8125 4.625 2.8125 5 5 C4.01 6.485 4.01 6.485 3 8 C2.34 8 1.68 8 1 8 C1 8.66 1 9.32 1 10 C0.34 10 -0.32 10 -1 10 C-1.33 10.99 -1.66 11.98 -2 13 C-2.33 13 -2.66 13 -3 13 C-3 11.35 -3 9.7 -3 8 C-2.01 8 -1.02 8 0 8 C-0.37125 7.236875 -0.7425 6.47375 -1.125 5.6875 C-1.41375 4.800625 -1.7025 3.91375 -2 3 C-1.34 2.01 -0.68 1.02 0 0 Z " fill="#092EAC" transform="translate(64,10)"/>
<path d="M0 0 C3 1 3 1 4.25 3.375 C5 6 5 6 4 9 C-0.50802601 7.74194623 -3.4912812 6.09592835 -7 3 C-1.25 2.875 -1.25 2.875 1 4 C0.67 2.68 0.34 1.36 0 0 Z " fill="#2A48AE" transform="translate(24,71)"/>
<path d="M0 0 C0.33 0 0.66 0 1 0 C1.68808143 10.74171562 1.68808143 10.74171562 -0.8125 14.6875 C-1.534375 15.450625 -2.25625 16.21375 -3 17 C-3.99 17 -4.98 17 -6 17 C-6.33 16.01 -6.66 15.02 -7 14 C-5.68 14 -4.36 14 -3 14 C-3.04125 13.236875 -3.0825 12.47375 -3.125 11.6875 C-3 9 -3 9 -1 6 C-0.60986284 4.0103005 -0.26797351 2.00980131 0 0 Z " fill="#3B4EA3" transform="translate(55,62)"/>
<path d="M0 0 C6.18160604 0.53753096 11.326858 2.54582388 17 5 C17 5.66 17 6.32 17 7 C17.99 7 18.98 7 20 7 C19.67 7.66 19.34 8.32 19 9 C16.39183538 8.07258588 13.7888611 7.13365283 11.1875 6.1875 C10.44951172 5.92646484 9.71152344 5.66542969 8.95117188 5.39648438 C8.23896484 5.13544922 7.52675781 4.87441406 6.79296875 4.60546875 C6.1383667 4.36981201 5.48376465 4.13415527 4.80932617 3.89135742 C2.77164682 2.8875027 1.51346655 1.67730596 0 0 Z " fill="#38519D" transform="translate(15,55)"/>
<path d="M0 0 C0.66 0.33 1.32 0.66 2 1 C1.38461538 7.52307692 1.38461538 7.52307692 -0.5625 9.9375 C-1.036875 10.288125 -1.51125 10.63875 -2 11 C-3.32789969 8.8128711 -4.04752686 7.52279544 -3.8125 4.9375 C-2.89199398 2.74244718 -1.78403777 1.55133719 0 0 Z " fill="#032CA9" transform="translate(76,51)"/>
<path d="M0 0 C1.64826111 2.96687001 2.44271087 5.65626525 3 9 C4.32 9.33 5.64 9.66 7 10 C7 11.65 7 13.3 7 15 C0.06229508 9.72131148 0.06229508 9.72131148 -1 5 C-0.625 2.1875 -0.625 2.1875 0 0 Z " fill="#4052A4" transform="translate(8,40)"/>
<path d="M0 0 C2.375 -0.1875 2.375 -0.1875 5 0 C5.66 0.99 6.32 1.98 7 3 C6.67 3.66 6.34 4.32 6 5 C2.04 4.67 -1.92 4.34 -6 4 C-5.01 3.34 -4.02 2.68 -3 2 C-2.34 2.33 -1.68 2.66 -1 3 C-0.67 2.01 -0.34 1.02 0 0 Z " fill="#1032AA" transform="translate(43,76)"/>
<path d="M0 0 C0.66 0 1.32 0 2 0 C2 3.3 2 6.6 2 10 C0.68 10 -0.64 10 -2 10 C-2 11.98 -2 13.96 -2 16 C-2.33 16 -2.66 16 -3 16 C-3 12.37 -3 8.74 -3 5 C-2.01 5.495 -2.01 5.495 -1 6 C-0.67 4.02 -0.34 2.04 0 0 Z " fill="#05218D" transform="translate(57,52)"/>
<path d="M0 0 C2 1 2 1 3 3 C2.29875 3.2475 1.5975 3.495 0.875 3.75 C-2.15498822 4.95386081 -2.15498822 4.95386081 -5.125 7.1875 C-6.07375 7.785625 -7.0225 8.38375 -8 9 C-8.99 8.67 -9.98 8.34 -11 8 C-6.25 4 -6.25 4 -4 4 C-4 3.34 -4 2.68 -4 2 C-2.125 0.9375 -2.125 0.9375 0 0 Z " fill="#4658A8" transform="translate(72,38)"/>
<path d="M0 0 C2.3125 0.8125 2.3125 0.8125 4 2 C4 2.99 4 3.98 4 5 C1.69 5.33 -0.62 5.66 -3 6 C-3.66 5.01 -4.32 4.02 -5 3 C-2.75 1.375 -2.75 1.375 0 0 Z " fill="#1438A1" transform="translate(32,75)"/>
<path d="M0 0 C2.71928517 0.37507382 3.84218661 0.84218661 5.8125 2.8125 C7 5 7 5 6.6875 7.25 C6.460625 7.8275 6.23375 8.405 6 9 C6 8.34 6 7.68 6 7 C4.68 6.67 3.36 6.34 2 6 C2 5.34 2 4.68 2 4 C1.34 4 0.68 4 0 4 C0 2.68 0 1.36 0 0 Z " fill="#373F7F" transform="translate(3,57)"/>
<path d="M0 0 C0.66 0 1.32 0 2 0 C3.32229189 2.64458379 3.09677194 4.67761301 3.0625 7.625 C3.05347656 8.62789062 3.04445313 9.63078125 3.03515625 10.6640625 C3.02355469 11.43492188 3.01195313 12.20578125 3 13 C2.34 13 1.68 13 1 13 C1 10.03 1 7.06 1 4 C0.34 3.67 -0.32 3.34 -1 3 C-0.67 2.01 -0.34 1.02 0 0 Z " fill="#3A4A86" transform="translate(78,33)"/>
<path d="M0 0 C0 3.57575896 -1.08840607 5.05295935 -3 8 C-3.99 7.67 -4.98 7.34 -6 7 C-4.60667426 3.63279613 -3.0210714 2.0140476 0 0 Z " fill="#5565AF" transform="translate(18,16)"/>
<path d="M0 0 C0.66 0 1.32 0 2 0 C2 1.98 2 3.96 2 6 C1.01 6.495 1.01 6.495 0 7 C-0.66 6.67 -1.32 6.34 -2 6 C-2 4.68 -2 3.36 -2 2 C-1.34 2 -0.68 2 0 2 C0 1.34 0 0.68 0 0 Z " fill="#16318F" transform="translate(79,46)"/>
<path d="M0 0 C0.66 0 1.32 0 2 0 C2 0.99 2 1.98 2 3 C1.34 3 0.68 3 0 3 C0 3.66 0 4.32 0 5 C-0.66 5 -1.32 5 -2 5 C-2.33 5.99 -2.66 6.98 -3 8 C-3.33 8 -3.66 8 -4 8 C-4 6.35 -4 4.7 -4 3 C-3.01 3 -2.02 3 -1 3 C-0.67 2.01 -0.34 1.02 0 0 Z " fill="#3B509C" transform="translate(65,15)"/>
<path d="M0 0 C0.99 0.99 1.98 1.98 3 3 C3.66 2.34 4.32 1.68 5 1 C5 2.65 5 4.3 5 6 C4.01 6.495 4.01 6.495 3 7 C3 6.34 3 5.68 3 5 C2.01 4.67 1.02 4.34 0 4 C0 2.68 0 1.36 0 0 Z " fill="#596AB6" transform="translate(52,52)"/>
<path d="M0 0 C0.66 0.33 1.32 0.66 2 1 C1.34 2.32 0.68 3.64 0 5 C-0.99 5 -1.98 5 -3 5 C-3.33 4.01 -3.66 3.02 -4 2 C-2.68 2 -1.36 2 0 2 C0 1.34 0 0.68 0 0 Z " fill="#4C6BB2" transform="translate(52,74)"/>
<path d="" fill="#FFFFFF" transform="translate(0,0)"/>
<path d="" fill="#FFFFFF" transform="translate(0,0)"/>
</svg>
